PathFileType	3	(X/Y/Z)	D:\Jess\Healthy\Labelled\HA22\20251031\SRRun01.trc
DataRate	CameraRate	NumFrames	NumMarkers	Units	OrigDataRate	OrigDataStartFrame	OrigNumFrames
250.0	250.0	4	37	mm	250.0	36875	2501
Frame#	Time	C7			T10			CLAV			LSHO			RSHO			LASIS			RASIS			LPSIS			RPSIS			LILCR			RILCR			LGTR			LTHI			LLTHI			LLEP			LMEP			LPSH			LLSH			LDSH			LLMAL			LMMAL			LTOE			L5TH			LHEE			RGTR			RTHI			RLTHI			RLEP			RMEP			RPSH			RLSH			RDSH			RLMAL			RMMAL			RTOE			R5TH			RHEE			
		X1	Y1	Z1	X2	Y2	Z2	X3	Y3	Z3	X4	Y4	Z4	X5	Y5	Z5	X6	Y6	Z6	X7	Y7	Z7	X8	Y8	Z8	X9	Y9	Z9	X10	Y10	Z10	X11	Y11	Z11	X12	Y12	Z12	X13	Y13	Z13	X14	Y14	Z14	X15	Y15	Z15	X16	Y16	Z16	X17	Y17	Z17	X18	Y18	Z18	X19	Y19	Z19	X20	Y20	Z20	X21	Y21	Z21	X22	Y22	Z22	X23	Y23	Z23	X24	Y24	Z24	X25	Y25	Z25	X26	Y26	Z26	X27	Y27	Z27	X28	Y28	Z28	X29	Y29	Z29	X30	Y30	Z30	X31	Y31	Z31	X32	Y32	Z32	X33	Y33	Z33	X34	Y34	Z34	X35	Y35	Z35	X36	Y36	Z36	X37	Y37	Z37	

1876	147.496	839.9781434448474	1619.787928789448	-817.4550875821536	854.3496045367796	1373.853346808326	-748.9356430444086	784.2708402776074	1543.031967237244	-956.1350538205369	672.8896352708957	1642.033870333493	-818.2982485494957	963.9895007369282	1622.953471390278	-938.1237812685425	704.8379838797426	1120.031081804256	-886.9651211966608	923.305643015328	1093.960305631499	-910.0902876907531	814.5927699991585	1167.0658260865	-713.1354173924442	858.4357254250253	1167.187795361303	-720.4006539311447	665.3168289217626	1211.165956669297	-808.7728018600852	969.0882767778966	1187.530924282252	-883.919827712259	630.8472564032944	993.5404346265552	-848.9577322617691	717.7576435475497	900.4131690141771	-999.2918336980789	659.3784893236416	779.1561112473972	-920.3631941650153	679.801338168988	633.4788885687213	-970.2521583277671	nan	nan	nan	729.9614384350298	521.6904104368018	-1033.421746780356	673.608948092949	409.8348883906955	-946.2467614285422	737.4239216099518	322.2775630412675	-997.0089654584231	708.212134651703	193.046660865221	-931.206786050619	nan	nan	nan	727.9162813719762	130.9872334949656	-1089.096444030923	686.5354588992416	100.3027668247257	-1045.939158439471	769.6773638214801	160.0293126197784	-847.5856381898031	1000.648858390456	970.4233068220161	-802.8699997631978	899.3448241053323	788.6707614058199	-833.8614315955675	970.5413149492339	767.9428360140959	-722.752798878226	946.2938447604896	641.6866378257363	-620.5990596131206	nan	nan	nan	887.7473261823523	515.9889397129135	-585.5074072692911	950.2972618842358	484.5581327635052	-464.0859712612796	883.9403862294959	373.2988926567461	-449.5958476387784	918.1233640075019	301.5804633395544	-318.8769126158637	nan	nan	nan	886.8707787426873	136.1519373799205	-358.4926965632675	927.2806122201284	153.6301016943507	-305.4398985015924	863.1740288082457	354.2370966848517	-251.0656365118391	
1877	147.5	839.3831218319513	1620.004204095348	-817.7120951829519	853.9979453586653	1374.182423992106	-749.0640452883757	783.7147511435898	1543.057823464373	-956.2403155034877	672.3749780161675	1641.950196836299	-818.4172058997026	963.3169403066551	1623.241736747296	-938.3068224279506	705.0583637538367	1119.991152960371	-887.2436625419394	923.3731051486051	1094.24049350025	-910.687127129752	815.1153741956911	1166.961935616258	-713.5252523289895	858.9598431372249	1167.220803375927	-720.8084634120734	665.4444820516765	1210.692303285424	-808.821424154674	969.0273736405763	1187.793624399218	-884.6052972060247	630.9518743192832	992.4975531168011	-848.6327332696175	717.6782569431463	897.1834091896728	-997.942379611726	659.6424197123581	777.0724246385005	-917.31844847179	680.1805197780675	630.8594059701709	-967.125128391501	nan	nan	nan	730.598174618139	520.522450130556	-1033.21141730306	673.7599878426942	406.4490780916496	-949.6169546285197	737.5816308166927	320.2752654262807	-1003.10592174455	708.1254650446402	188.9513777608973	-941.5744040137185	nan	nan	nan	728.3678726503994	131.0658555187952	-1101.384151174586	686.9921834858924	98.97480047079566	-1059.210564190857	769.4292198711888	153.5319028199583	-858.8007725338487	1000.879375295711	970.6995310044523	-803.9405201029529	898.612823586182	788.9325627953209	-835.2326710954517	970.2932484694674	767.6009416343003	-724.5979188822314	946.1890173402605	641.4601833886549	-622.3836231268582	nan	nan	nan	887.4468291894095	516.4380156911735	-584.7354990801419	950.8305563303607	487.1698075809909	-462.9683632799926	883.8745841000969	376.6396014766845	-445.7606529555285	918.70736634816	307.3039843585822	-313.6179834447678	nan	nan	nan	886.6941827140137	141.7746228908177	-351.3523482848589	927.4479161584576	159.6018432732653	-298.6768733750795	864.4182986845419	360.9541373632099	-245.9987251518806	
1878	147.504	838.7618629773325	1620.05541502318	-817.9806832114917	853.5987392865015	1374.340807300851	-749.1212964760836	783.1812307814829	1542.883730063095	-956.3612143276612	671.8310451434767	1641.681896625876	-818.5898840389075	962.6649859781962	1623.32883081447	-938.4593842828521	705.2989256212559	1119.789915015557	-887.4850623079242	923.4585994868581	1094.429645954853	-911.2301720682236	815.5627123509071	1166.621212032167	-713.8297133729568	859.4136333699583	1167.020519879218	-721.1265780003968	665.5615120721353	1209.998342538306	-808.8169574700745	968.9480827725049	1187.975925052403	-885.1780209587405	631.0487963499794	991.2136613536233	-848.320839347121	717.6170112359481	893.6109890104449	-996.4783818238856	659.7731588462087	774.7840918885086	-914.3358018090578	680.5315354296283	628.14836889118	-964.0572264146831	nan	nan	nan	731.2723480282236	519.3042115558374	-1032.876741213303	673.9469635013855	403.2538255105669	-952.7322041854138	737.7694398242368	318.4422678701087	-1008.805109643574	708.0790569291117	185.2109859258613	-951.3868967787151	nan	nan	nan	728.8676143037613	131.16971750435	-1112.887837209376	687.5332426208421	97.75922479168646	-1071.661935161332	769.2391281158245	147.6157166738998	-869.4378383234646	1001.082941540334	970.8285362304055	-805.0287427737252	897.9356084725648	789.0155031325086	-836.8609385927813	970.009555424907	766.9873378667925	-726.6690151658627	946.0558626668317	640.8904543125651	-624.5011115736264	nan	nan	nan	887.1423768720778	516.6026794351351	-584.2358763495663	951.3281564551825	489.6407980294733	-462.122509718383	883.7996824589219	379.9038174647424	-442.1176817564411	919.2957907898881	313.0743769072729	-308.5465320503795	nan	nan	nan	886.4407384054881	147.4803971318372	-344.2810250036372	927.5817796848584	165.6658979769837	-292.0313320572523	865.7267940457966	367.7747684045696	-241.1378554161943	
1879	147.508	838.1137652619149	1619.937135212931	-818.2579046472787	853.1589817691453	1374.323829583679	-749.1074983826749	782.6705528173876	1542.508897372709	-956.4928612183653	671.2573239239407	1641.228146450059	-818.815673578453	962.030534883263	1623.213859223627	-938.5808284312246	705.5621568163675	1119.430140787664	-887.6918743318433	923.5653701259	1094.522208035938	-911.7204446276855	815.9333634383288	1166.049446184433	-714.0517080899194	859.7950307641917	1166.589357568344	-721.3595116959629	665.6698519372736	1209.097696794827	-808.7689126789157	968.8577762192086	1188.083063413527	-885.6266507401062	631.1394768060372	989.7105203047175	-848.0277834935127	717.5791198584081	889.7478242365075	-994.9203162292828	659.7844988410242	772.3223249487497	-911.4589389786348	680.8487663671559	625.3785859018968	-961.0939296727939	nan	nan	nan	731.9671202841009	518.0421075191548	-1032.442702906427	674.1671511986701	400.2460605124483	-955.5827447737557	737.9841835175407	316.7579217204806	-1014.081929073896	708.0812304052535	181.7983277793399	-960.5779877630259	nan	nan	nan	729.4243730594882	131.2286767338043	-1123.542891522936	688.171549166696	96.59002795284621	-1083.213257360085	769.1215946684765	142.2762210054937	-879.4160024650345	1001.260624910219	970.8057552870094	-806.1283219856315	897.3347430317058	788.9125404655217	-838.7252879101504	969.7009251482535	766.1145030185023	-728.9334944843924	945.8987780616714	639.9868843013687	-626.9261223878909	nan	nan	nan	886.8465757947699	516.4870754967849	-584.0104344504103	951.7885346270755	491.9728305399213	-461.5547324714634	883.7282636403766	383.0899434727266	-438.6919256658804	919.8942888159218	318.8889489341221	-303.7013325709558	nan	nan	nan	886.1212720448838	153.2573058608171	-337.2840729350683	927.6818222293514	171.8190493673811	-285.5051271511055	867.0950322710465	374.7102837751942	-236.5470209639722	
